# xmcd
#
# Track frame offsets:
#	150
#	30413
#	45920
#	58541
#	71031
#	93500
#	106848
#	116034
#	125117
#	136872
#	147518
#	158713
#	169893
#	180462
#	191092
#	202455
#	224548
#	236484
#	247680
#	259035
#	270085
#	281009
#	292628
#
# Disc length: 4154 seconds
#
# Revision: 3
# Processed by: cddbd v1.5.2PL0 Copyright (c) Steve Scherf et al.
# Submitted via: EZCDAudioConverter 8.1.0.1
#
DISCID=51103817
DTITLE=Eric Clapton and Friends - The Album CD1 feat. The Yardbirds (Blackline C
DTITLE=ollection 2286
DYEAR=2014
DGENRE=Blues
TTITLE0=Smokestack Lightning
TTITLE1=Train Kept A Rollin'
TTITLE2=Good Morning Little Schoolgirl
TTITLE3=Stroll On
TTITLE4=Here 'Tis
TTITLE5=Still I'm Said
TTITLE6=I Ain't Got You
TTITLE7=Talking About You
TTITLE8=Pounds And Stomps
TTITLE9=Honey In Your Hips
TTITLE10=For Your Love
TTITLE11=Boom Boom
TTITLE12=Certain Girl
TTITLE13=I Wish You Would
TTITLE14=Snake Drive
TTITLE15=First Time I Met The Blues
TTITLE16=Steeled Blues
TTITLE17=Heart Full Of Soul
TTITLE18=Miles Road
TTITLE19=Shapes Of Things
TTITLE20=Evil Hearted You
TTITLE21=I Got Love If You Want (Live)
TTITLE22=Take It Easy Baby (Live)
EXTD=
EXTT0=
EXTT1=
EXTT2=
EXTT3=
EXTT4=
EXTT5=
EXTT6=
EXTT7=
EXTT8=
EXTT9=
EXTT10=
EXTT11=
EXTT12=
EXTT13=
EXTT14=
EXTT15=
EXTT16=
EXTT17=
EXTT18=
EXTT19=
EXTT20=
EXTT21=
EXTT22=
PLAYORDER=
